<?xml version="1.0" encoding="utf-8" standalone="no"?>
<!DOCTYPE svg PUBLIC "-//W3C//DTD SVG 1.1//EN"
  "http://www.w3.org/Graphics/SVG/1.1/DTD/svg11.dtd">
<svg xmlns:xlink="http://www.w3.org/1999/xlink" width="576pt" height="324pt" viewBox="0 0 576 324" xmlns="http://www.w3.org/2000/svg" version="1.1">
 <metadata>
  <rdf:RDF xmlns:dc="http://purl.org/dc/elements/1.1/" xmlns:cc="http://creativecommons.org/ns#" xmlns:rdf="http://www.w3.org/1999/02/22-rdf-syntax-ns#">
   <cc:Work>
    <dc:type rdf:resource="http://purl.org/dc/dcmitype/StillImage"/>
    <dc:date>2026-07-02T14:51:22.947994</dc:date>
    <dc:format>image/svg+xml</dc:format>
    <dc:creator>
     <cc:Agent>
      <dc:title>Matplotlib v3.11.0, https://matplotlib.org/</dc:title>
     </cc:Agent>
    </dc:creator>
   </cc:Work>
  </rdf:RDF>
 </metadata>
 <defs>
  <style type="text/css">*{stroke-linejoin: round; stroke-linecap: butt}</style>
 </defs>
 <g id="figure_1">
  <g id="patch_1">
   <path d="M 0 324 
L 576 324 
L 576 0 
L 0 0 
z
" style="fill: #ffffff"/>
  </g>
  <g id="axes_1">
   <g id="patch_2">
    <path d="M 54.442344 282.2 
L 565.2 282.2 
L 565.2 26.16 
L 54.442344 26.16 
z
" style="fill: #ffffff"/>
   </g>
   <g id="matplotlib.axis_1">
    <g id="xtick_1">
     <g id="line2d_1">
      <defs>
       <path id="m1a99f041ec" d="M 0 0 
L 0 3.5 
" style="stroke: #000000; stroke-width: 0.8"/>
      </defs>
      <g>
       <use xlink:href="#m1a99f041ec" x="77.658601" y="282.2" style="stroke: #000000; stroke-width: 0.8"/>
      </g>
     </g>
     <g id="text_1">
      <!-- 0 -->
      <g transform="translate(74.477351 296.797656) scale(0.1 -0.1)">
       <defs>
        <path id="DejaVuSans-13" d="M 2034 4250 
Q 1547 4250 1301 3770 
Q 1056 3291 1056 2328 
Q 1056 1369 1301 889 
Q 1547 409 2034 409 
Q 2525 409 2770 889 
Q 3016 1369 3016 2328 
Q 3016 3291 2770 3770 
Q 2525 4250 2034 4250 
z
M 2034 4750 
Q 2819 4750 3233 4129 
Q 3647 3509 3647 2328 
Q 3647 1150 3233 529 
Q 2819 -91 2034 -91 
Q 1250 -91 836 529 
Q 422 1150 422 2328 
Q 422 3509 836 4129 
Q 1250 4750 2034 4750 
z
" transform="scale(0.015625)"/>
       </defs>
       <use xlink:href="#DejaVuSans-13"/>
      </g>
     </g>
    </g>
    <g id="xtick_2">
     <g id="line2d_2">
      <g>
       <use xlink:href="#m1a99f041ec" x="170.523629" y="282.2" style="stroke: #000000; stroke-width: 0.8"/>
      </g>
     </g>
     <g id="text_2">
      <!-- 2 -->
      <g transform="translate(167.342379 296.797656) scale(0.1 -0.1)">
       <defs>
        <path id="DejaVuSans-15" d="M 1228 531 
L 3431 531 
L 3431 0 
L 469 0 
L 469 531 
Q 828 903 1448 1529 
Q 2069 2156 2228 2338 
Q 2531 2678 2651 2914 
Q 2772 3150 2772 3378 
Q 2772 3750 2511 3984 
Q 2250 4219 1831 4219 
Q 1534 4219 1204 4116 
Q 875 4013 500 3803 
L 500 4441 
Q 881 4594 1212 4672 
Q 1544 4750 1819 4750 
Q 2544 4750 2975 4387 
Q 3406 4025 3406 3419 
Q 3406 3131 3298 2873 
Q 3191 2616 2906 2266 
Q 2828 2175 2409 1742 
Q 1991 1309 1228 531 
z
" transform="scale(0.015625)"/>
       </defs>
       <use xlink:href="#DejaVuSans-15"/>
      </g>
     </g>
    </g>
    <g id="xtick_3">
     <g id="line2d_3">
      <g>
       <use xlink:href="#m1a99f041ec" x="263.388658" y="282.2" style="stroke: #000000; stroke-width: 0.8"/>
      </g>
     </g>
     <g id="text_3">
      <!-- 4 -->
      <g transform="translate(260.207408 296.797656) scale(0.1 -0.1)">
       <defs>
        <path id="DejaVuSans-17" d="M 2419 4116 
L 825 1625 
L 2419 1625 
L 2419 4116 
z
M 2253 4666 
L 3047 4666 
L 3047 1625 
L 3713 1625 
L 3713 1100 
L 3047 1100 
L 3047 0 
L 2419 0 
L 2419 1100 
L 313 1100 
L 313 1709 
L 2253 4666 
z
" transform="scale(0.015625)"/>
       </defs>
       <use xlink:href="#DejaVuSans-17"/>
      </g>
     </g>
    </g>
    <g id="xtick_4">
     <g id="line2d_4">
      <g>
       <use xlink:href="#m1a99f041ec" x="356.253686" y="282.2" style="stroke: #000000; stroke-width: 0.8"/>
      </g>
     </g>
     <g id="text_4">
      <!-- 6 -->
      <g transform="translate(353.072436 296.797656) scale(0.1 -0.1)">
       <defs>
        <path id="DejaVuSans-19" d="M 2113 2584 
Q 1688 2584 1439 2293 
Q 1191 2003 1191 1497 
Q 1191 994 1439 701 
Q 1688 409 2113 409 
Q 2538 409 2786 701 
Q 3034 994 3034 1497 
Q 3034 2003 2786 2293 
Q 2538 2584 2113 2584 
z
M 3366 4563 
L 3366 3988 
Q 3128 4100 2886 4159 
Q 2644 4219 2406 4219 
Q 1781 4219 1451 3797 
Q 1122 3375 1075 2522 
Q 1259 2794 1537 2939 
Q 1816 3084 2150 3084 
Q 2853 3084 3261 2657 
Q 3669 2231 3669 1497 
Q 3669 778 3244 343 
Q 2819 -91 2113 -91 
Q 1303 -91 875 529 
Q 447 1150 447 2328 
Q 447 3434 972 4092 
Q 1497 4750 2381 4750 
Q 2619 4750 2861 4703 
Q 3103 4656 3366 4563 
z
" transform="scale(0.015625)"/>
       </defs>
       <use xlink:href="#DejaVuSans-19"/>
      </g>
     </g>
    </g>
    <g id="xtick_5">
     <g id="line2d_5">
      <g>
       <use xlink:href="#m1a99f041ec" x="449.118714" y="282.2" style="stroke: #000000; stroke-width: 0.8"/>
      </g>
     </g>
     <g id="text_5">
      <!-- 8 -->
      <g transform="translate(445.937464 296.797656) scale(0.1 -0.1)">
       <defs>
        <path id="DejaVuSans-1b" d="M 2034 2216 
Q 1584 2216 1326 1975 
Q 1069 1734 1069 1313 
Q 1069 891 1326 650 
Q 1584 409 2034 409 
Q 2484 409 2743 651 
Q 3003 894 3003 1313 
Q 3003 1734 2745 1975 
Q 2488 2216 2034 2216 
z
M 1403 2484 
Q 997 2584 770 2862 
Q 544 3141 544 3541 
Q 544 4100 942 4425 
Q 1341 4750 2034 4750 
Q 2731 4750 3128 4425 
Q 3525 4100 3525 3541 
Q 3525 3141 3298 2862 
Q 3072 2584 2669 2484 
Q 3125 2378 3379 2068 
Q 3634 1759 3634 1313 
Q 3634 634 3220 271 
Q 2806 -91 2034 -91 
Q 1263 -91 848 271 
Q 434 634 434 1313 
Q 434 1759 690 2068 
Q 947 2378 1403 2484 
z
M 1172 3481 
Q 1172 3119 1398 2916 
Q 1625 2713 2034 2713 
Q 2441 2713 2670 2916 
Q 2900 3119 2900 3481 
Q 2900 3844 2670 4047 
Q 2441 4250 2034 4250 
Q 1625 4250 1398 4047 
Q 1172 3844 1172 3481 
z
" transform="scale(0.015625)"/>
       </defs>
       <use xlink:href="#DejaVuSans-1b"/>
      </g>
     </g>
    </g>
    <g id="xtick_6">
     <g id="line2d_6">
      <g>
       <use xlink:href="#m1a99f041ec" x="541.983743" y="282.2" style="stroke: #000000; stroke-width: 0.8"/>
      </g>
     </g>
     <g id="text_6">
      <!-- 10 -->
      <g transform="translate(535.621243 296.797656) scale(0.1 -0.1)">
       <defs>
        <path id="DejaVuSans-14" d="M 794 531 
L 1825 531 
L 1825 4091 
L 703 3866 
L 703 4441 
L 1819 4666 
L 2450 4666 
L 2450 531 
L 3481 531 
L 3481 0 
L 794 0 
L 794 531 
z
" transform="scale(0.015625)"/>
       </defs>
       <use xlink:href="#DejaVuSans-14"/>
       <use xlink:href="#DejaVuSans-13" transform="translate(63.625 0)"/>
      </g>
     </g>
    </g>
    <g id="text_7">
     <!-- x -->
     <g transform="translate(306.861797 310.797656) scale(0.1 -0.1)">
      <defs>
       <path id="DejaVuSans-5b" d="M 3513 3500 
L 2247 1797 
L 3578 0 
L 2900 0 
L 1881 1375 
L 863 0 
L 184 0 
L 1544 1831 
L 300 3500 
L 978 3500 
L 1906 2253 
L 2834 3500 
L 3513 3500 
z
" transform="scale(0.015625)"/>
      </defs>
      <use xlink:href="#DejaVuSans-5b"/>
     </g>
    </g>
   </g>
   <g id="matplotlib.axis_2">
    <g id="ytick_1">
     <g id="line2d_7">
      <defs>
       <path id="m728ee73c04" d="M 0 0 
L -3.5 0 
" style="stroke: #000000; stroke-width: 0.8"/>
      </defs>
      <g>
       <use xlink:href="#m728ee73c04" x="54.442344" y="270.561818" style="stroke: #000000; stroke-width: 0.8"/>
      </g>
     </g>
     <g id="text_8">
      <!-- 0.00 -->
      <g transform="translate(25.176719 274.360646) scale(0.1 -0.1)">
       <defs>
        <path id="DejaVuSans-11" d="M 684 794 
L 1344 794 
L 1344 0 
L 684 0 
L 684 794 
z
" transform="scale(0.015625)"/>
       </defs>
       <use xlink:href="#DejaVuSans-13"/>
       <use xlink:href="#DejaVuSans-11" transform="translate(63.625 0)"/>
       <use xlink:href="#DejaVuSans-13" transform="translate(95.40625 0)"/>
       <use xlink:href="#DejaVuSans-13" transform="translate(159.03125 0)"/>
      </g>
     </g>
    </g>
    <g id="ytick_2">
     <g id="line2d_8">
      <g>
       <use xlink:href="#m728ee73c04" x="54.442344" y="226.877978" style="stroke: #000000; stroke-width: 0.8"/>
      </g>
     </g>
     <g id="text_9">
      <!-- 0.05 -->
      <g transform="translate(25.176719 230.676806) scale(0.1 -0.1)">
       <defs>
        <path id="DejaVuSans-18" d="M 691 4666 
L 3169 4666 
L 3169 4134 
L 1269 4134 
L 1269 2991 
Q 1406 3038 1543 3061 
Q 1681 3084 1819 3084 
Q 2600 3084 3056 2656 
Q 3513 2228 3513 1497 
Q 3513 744 3044 326 
Q 2575 -91 1722 -91 
Q 1428 -91 1123 -41 
Q 819 9 494 109 
L 494 744 
Q 775 591 1075 516 
Q 1375 441 1709 441 
Q 2250 441 2565 725 
Q 2881 1009 2881 1497 
Q 2881 1984 2565 2268 
Q 2250 2553 1709 2553 
Q 1456 2553 1204 2497 
Q 953 2441 691 2322 
L 691 4666 
z
" transform="scale(0.015625)"/>
       </defs>
       <use xlink:href="#DejaVuSans-13"/>
       <use xlink:href="#DejaVuSans-11" transform="translate(63.625 0)"/>
       <use xlink:href="#DejaVuSans-13" transform="translate(95.40625 0)"/>
       <use xlink:href="#DejaVuSans-18" transform="translate(159.03125 0)"/>
      </g>
     </g>
    </g>
    <g id="ytick_3">
     <g id="line2d_9">
      <g>
       <use xlink:href="#m728ee73c04" x="54.442344" y="183.194137" style="stroke: #000000; stroke-width: 0.8"/>
      </g>
     </g>
     <g id="text_10">
      <!-- 0.10 -->
      <g transform="translate(25.176719 186.992965) scale(0.1 -0.1)">
       <use xlink:href="#DejaVuSans-13"/>
       <use xlink:href="#DejaVuSans-11" transform="translate(63.625 0)"/>
       <use xlink:href="#DejaVuSans-14" transform="translate(95.40625 0)"/>
       <use xlink:href="#DejaVuSans-13" transform="translate(159.03125 0)"/>
      </g>
     </g>
    </g>
    <g id="ytick_4">
     <g id="line2d_10">
      <g>
       <use xlink:href="#m728ee73c04" x="54.442344" y="139.510296" style="stroke: #000000; stroke-width: 0.8"/>
      </g>
     </g>
     <g id="text_11">
      <!-- 0.15 -->
      <g transform="translate(25.176719 143.309125) scale(0.1 -0.1)">
       <use xlink:href="#DejaVuSans-13"/>
       <use xlink:href="#DejaVuSans-11" transform="translate(63.625 0)"/>
       <use xlink:href="#DejaVuSans-14" transform="translate(95.40625 0)"/>
       <use xlink:href="#DejaVuSans-18" transform="translate(159.03125 0)"/>
      </g>
     </g>
    </g>
    <g id="ytick_5">
     <g id="line2d_11">
      <g>
       <use xlink:href="#m728ee73c04" x="54.442344" y="95.826456" style="stroke: #000000; stroke-width: 0.8"/>
      </g>
     </g>
     <g id="text_12">
      <!-- 0.20 -->
      <g transform="translate(25.176719 99.625284) scale(0.1 -0.1)">
       <use xlink:href="#DejaVuSans-13"/>
       <use xlink:href="#DejaVuSans-11" transform="translate(63.625 0)"/>
       <use xlink:href="#DejaVuSans-15" transform="translate(95.40625 0)"/>
       <use xlink:href="#DejaVuSans-13" transform="translate(159.03125 0)"/>
      </g>
     </g>
    </g>
    <g id="ytick_6">
     <g id="line2d_12">
      <g>
       <use xlink:href="#m728ee73c04" x="54.442344" y="52.142615" style="stroke: #000000; stroke-width: 0.8"/>
      </g>
     </g>
     <g id="text_13">
      <!-- 0.25 -->
      <g transform="translate(25.176719 55.941443) scale(0.1 -0.1)">
       <use xlink:href="#DejaVuSans-13"/>
       <use xlink:href="#DejaVuSans-11" transform="translate(63.625 0)"/>
       <use xlink:href="#DejaVuSans-15" transform="translate(95.40625 0)"/>
       <use xlink:href="#DejaVuSans-18" transform="translate(159.03125 0)"/>
      </g>
     </g>
    </g>
    <g id="text_14">
     <!-- density -->
     <g transform="translate(18.774375 172.512812) rotate(-90) scale(0.1 -0.1)">
      <defs>
       <path id="DejaVuSans-47" d="M 2906 2969 
L 2906 4863 
L 3481 4863 
L 3481 0 
L 2906 0 
L 2906 525 
Q 2725 213 2448 61 
Q 2172 -91 1784 -91 
Q 1150 -91 751 415 
Q 353 922 353 1747 
Q 353 2572 751 3078 
Q 1150 3584 1784 3584 
Q 2172 3584 2448 3432 
Q 2725 3281 2906 2969 
z
M 947 1747 
Q 947 1113 1208 752 
Q 1469 391 1925 391 
Q 2381 391 2643 752 
Q 2906 1113 2906 1747 
Q 2906 2381 2643 2742 
Q 2381 3103 1925 3103 
Q 1469 3103 1208 2742 
Q 947 2381 947 1747 
z
" transform="scale(0.015625)"/>
       <path id="DejaVuSans-48" d="M 3597 1894 
L 3597 1613 
L 953 1613 
Q 991 1019 1311 708 
Q 1631 397 2203 397 
Q 2534 397 2845 478 
Q 3156 559 3463 722 
L 3463 178 
Q 3153 47 2828 -22 
Q 2503 -91 2169 -91 
Q 1331 -91 842 396 
Q 353 884 353 1716 
Q 353 2575 817 3079 
Q 1281 3584 2069 3584 
Q 2775 3584 3186 3129 
Q 3597 2675 3597 1894 
z
M 3022 2063 
Q 3016 2534 2758 2815 
Q 2500 3097 2075 3097 
Q 1594 3097 1305 2825 
Q 1016 2553 972 2059 
L 3022 2063 
z
" transform="scale(0.015625)"/>
       <path id="DejaVuSans-51" d="M 3513 2113 
L 3513 0 
L 2938 0 
L 2938 2094 
Q 2938 2591 2744 2837 
Q 2550 3084 2163 3084 
Q 1697 3084 1428 2787 
Q 1159 2491 1159 1978 
L 1159 0 
L 581 0 
L 581 3500 
L 1159 3500 
L 1159 2956 
Q 1366 3272 1645 3428 
Q 1925 3584 2291 3584 
Q 2894 3584 3203 3211 
Q 3513 2838 3513 2113 
z
" transform="scale(0.015625)"/>
       <path id="DejaVuSans-56" d="M 2834 3397 
L 2834 2853 
Q 2591 2978 2328 3040 
Q 2066 3103 1784 3103 
Q 1356 3103 1142 2972 
Q 928 2841 928 2578 
Q 928 2378 1081 2264 
Q 1234 2150 1697 2047 
L 1894 2003 
Q 2506 1872 2764 1633 
Q 3022 1394 3022 966 
Q 3022 478 2636 193 
Q 2250 -91 1575 -91 
Q 1294 -91 989 -36 
Q 684 19 347 128 
L 347 722 
Q 666 556 975 473 
Q 1284 391 1588 391 
Q 1994 391 2212 530 
Q 2431 669 2431 922 
Q 2431 1156 2273 1281 
Q 2116 1406 1581 1522 
L 1381 1569 
Q 847 1681 609 1914 
Q 372 2147 372 2553 
Q 372 3047 722 3315 
Q 1072 3584 1716 3584 
Q 2034 3584 2315 3537 
Q 2597 3491 2834 3397 
z
" transform="scale(0.015625)"/>
       <path id="DejaVuSans-4c" d="M 603 3500 
L 1178 3500 
L 1178 0 
L 603 0 
L 603 3500 
z
M 603 4863 
L 1178 4863 
L 1178 4134 
L 603 4134 
L 603 4863 
z
" transform="scale(0.015625)"/>
       <path id="DejaVuSans-57" d="M 1172 4494 
L 1172 3500 
L 2356 3500 
L 2356 3053 
L 1172 3053 
L 1172 1153 
Q 1172 725 1289 603 
Q 1406 481 1766 481 
L 2356 481 
L 2356 0 
L 1766 0 
Q 1100 0 847 248 
Q 594 497 594 1153 
L 594 3053 
L 172 3053 
L 172 3500 
L 594 3500 
L 594 4494 
L 1172 4494 
z
" transform="scale(0.015625)"/>
       <path id="DejaVuSans-5c" d="M 2059 -325 
Q 1816 -950 1584 -1140 
Q 1353 -1331 966 -1331 
L 506 -1331 
L 506 -850 
L 844 -850 
Q 1081 -850 1212 -737 
Q 1344 -625 1503 -206 
L 1606 56 
L 191 3500 
L 800 3500 
L 1894 763 
L 2988 3500 
L 3597 3500 
L 2059 -325 
z
" transform="scale(0.015625)"/>
      </defs>
      <use xlink:href="#DejaVuSans-47"/>
      <use xlink:href="#DejaVuSans-48" transform="translate(63.484375 0)"/>
      <use xlink:href="#DejaVuSans-51" transform="translate(125.015625 0)"/>
      <use xlink:href="#DejaVuSans-56" transform="translate(188.390625 0)"/>
      <use xlink:href="#DejaVuSans-4c" transform="translate(240.484375 0)"/>
      <use xlink:href="#DejaVuSans-57" transform="translate(268.265625 0)"/>
      <use xlink:href="#DejaVuSans-5c" transform="translate(307.46875 0)"/>
     </g>
    </g>
   </g>
   <g id="line2d_13">
    <path d="M 77.658601 270.561818 
L 78.589112 237.377777 
L 79.519623 229.764914 
L 80.450135 224.552872 
L 81.380646 220.476507 
L 82.311157 217.084625 
L 84.17218 211.572453 
L 86.033203 207.13415 
L 87.894225 203.391034 
L 89.755248 200.141638 
L 91.61627 197.264537 
L 94.407804 193.479984 
L 97.199338 190.1844 
L 99.990872 187.267067 
L 102.782406 184.653095 
L 105.57394 182.289181 
L 109.295985 179.459489 
L 113.018031 176.936251 
L 116.740076 174.669269 
L 121.392632 172.139181 
L 126.045189 169.89531 
L 130.697745 167.895785 
L 136.280813 165.773844 
L 141.863881 163.914146 
L 147.446949 162.283073 
L 153.960528 160.633868 
L 160.474107 159.22612 
L 166.987686 158.033031 
L 174.431777 156.904683 
L 181.875867 156.002131 
L 190.250469 155.230141 
L 198.625071 154.692034 
L 206.999672 154.367491 
L 216.304786 154.237036 
L 225.609899 154.330513 
L 234.915012 154.632173 
L 245.150636 155.188877 
L 255.38626 155.967193 
L 265.621885 156.955192 
L 276.78802 158.260651 
L 287.954156 159.793612 
L 299.120292 161.545834 
L 310.286428 163.510928 
L 322.383075 165.874551 
L 334.479722 168.47848 
L 346.576368 171.320712 
L 358.673015 174.401215 
L 370.769662 177.721979 
L 382.866309 181.287166 
L 394.032445 184.800707 
L 405.198581 188.535415 
L 416.364716 192.501056 
L 427.530852 196.710429 
L 437.766477 200.797293 
L 448.002101 205.119508 
L 458.237725 209.69852 
L 467.542838 214.10766 
L 475.91744 218.300217 
L 484.292042 222.733253 
L 491.736132 226.904971 
L 499.180223 231.330881 
L 505.693802 235.450971 
L 512.207381 239.852598 
L 517.790449 243.904993 
L 522.443005 247.534116 
L 527.095562 251.466062 
L 530.817607 254.910378 
L 533.609141 257.741544 
L 536.400675 260.891769 
L 538.261698 263.27241 
L 540.12272 266.06923 
L 541.053232 267.794637 
L 541.983743 270.561818 
L 541.983743 270.561818 
" clip-path="url(#pd2edd35fde)" style="fill: none; stroke: #9ecae1; stroke-width: 1.5; stroke-linecap: square"/>
   </g>
   <g id="line2d_14">
    <path d="M 77.658601 270.561818 
L 78.589112 259.234184 
L 79.519623 253.440583 
L 80.450135 248.786463 
L 82.311157 241.143498 
L 84.17218 234.766345 
L 86.033203 229.177275 
L 87.894225 224.148619 
L 90.685759 217.383647 
L 93.477293 211.330234 
L 96.268827 205.83178 
L 99.060361 200.786058 
L 101.851895 196.121581 
L 105.57394 190.406401 
L 109.295985 185.185066 
L 113.018031 180.390255 
L 116.740076 175.970692 
L 120.462121 171.886093 
L 124.184166 168.104019 
L 127.906211 164.597801 
L 131.628257 161.34514 
L 136.280813 157.607313 
L 140.93337 154.205045 
L 145.585926 151.112054 
L 150.238483 148.305915 
L 154.891039 145.767256 
L 159.543596 143.479158 
L 164.196152 141.426701 
L 168.848709 139.596618 
L 173.501265 137.977018 
L 178.153822 136.557172 
L 183.73689 135.103376 
L 189.319958 133.907995 
L 194.903025 132.957255 
L 200.486093 132.238629 
L 206.069161 131.740655 
L 211.652229 131.452785 
L 217.235297 131.36526 
L 223.748876 131.504297 
L 230.262455 131.890328 
L 236.776034 132.510934 
L 243.289613 133.354527 
L 249.803193 134.410237 
L 256.316772 135.667826 
L 263.760862 137.339863 
L 271.204953 139.24924 
L 278.649043 141.382971 
L 286.093134 143.728684 
L 294.467735 146.606265 
L 302.842337 149.720978 
L 311.216939 153.057256 
L 320.522052 157.005792 
L 329.827165 161.189226 
L 340.062789 166.03897 
L 351.228925 171.596746 
L 362.395061 177.401442 
L 374.491708 183.930672 
L 388.449377 191.722375 
L 405.198581 201.348765 
L 429.391875 215.555479 
L 458.237725 232.455969 
L 473.125906 240.915149 
L 485.222553 247.528082 
L 495.458178 252.863828 
L 503.832779 256.996349 
L 511.27687 260.446741 
L 517.790449 263.252152 
L 524.304028 265.80827 
L 529.887096 267.746545 
L 534.539652 269.126352 
L 538.261698 270.015224 
L 541.053232 270.483049 
L 541.983743 270.561818 
L 541.983743 270.561818 
" clip-path="url(#pd2edd35fde)" style="fill: none; stroke: #6baed6; stroke-width: 1.5; stroke-linecap: square"/>
   </g>
   <g id="line2d_15">
    <path d="M 77.658601 270.561818 
L 78.589112 269.39579 
L 80.450135 266.252971 
L 83.241669 260.829422 
L 86.963714 253.001526 
L 94.407804 236.614917 
L 104.643429 214.169685 
L 111.157008 200.471716 
L 116.740076 189.254164 
L 122.323144 178.590858 
L 126.9757 170.161389 
L 131.628257 162.16699 
L 136.280813 154.620629 
L 140.93337 147.530983 
L 145.585926 140.903248 
L 150.238483 134.739759 
L 153.960528 130.143264 
L 157.682573 125.842934 
L 161.404618 121.837087 
L 165.126664 118.123408 
L 168.848709 114.699025 
L 172.570754 111.560566 
L 176.292799 108.704217 
L 180.014845 106.125772 
L 183.73689 103.820671 
L 187.458935 101.784042 
L 191.18098 100.010729 
L 194.903025 98.495327 
L 198.625071 97.232205 
L 202.347116 96.215533 
L 206.069161 95.439302 
L 209.791206 94.897345 
L 213.513252 94.583354 
L 217.235297 94.490901 
L 220.957342 94.613447 
L 224.679387 94.944361 
L 228.401433 95.476931 
L 232.123478 96.20438 
L 235.845523 97.119871 
L 240.49808 98.518184 
L 245.150636 100.186045 
L 249.803193 102.109881 
L 254.455749 104.276087 
L 259.108306 106.671051 
L 264.691373 109.827827 
L 270.274441 113.271019 
L 275.857509 116.977336 
L 282.371088 121.603107 
L 288.884667 126.519242 
L 296.328758 132.447294 
L 303.772848 138.655271 
L 313.077961 146.730686 
L 324.244097 156.755501 
L 341.923812 173.000734 
L 360.534038 190.021724 
L 371.700174 199.937467 
L 381.005287 207.921042 
L 389.379889 214.832534 
L 397.75449 221.440976 
L 405.198581 227.030015 
L 412.642671 232.325914 
L 419.15625 236.70289 
L 425.66983 240.827302 
L 432.183409 244.688835 
L 438.696988 248.27904 
L 445.210567 251.591405 
L 451.724146 254.621425 
L 457.307214 256.991969 
L 462.890282 259.153009 
L 468.47335 261.105503 
L 474.056418 262.851675 
L 479.639485 264.395061 
L 486.153064 265.946009 
L 492.666644 267.23797 
L 499.180223 268.284065 
L 505.693802 269.100458 
L 512.207381 269.706619 
L 519.651472 270.171795 
L 528.026073 270.45483 
L 538.261698 270.559103 
L 541.983743 270.561818 
L 541.983743 270.561818 
" clip-path="url(#pd2edd35fde)" style="fill: none; stroke: #2171b5; stroke-width: 1.5; stroke-linecap: square"/>
   </g>
   <g id="line2d_16">
    <path d="M 77.658601 270.561818 
L 80.450135 270.422418 
L 82.311157 270.097439 
L 84.17218 269.543898 
L 86.033203 268.743149 
L 87.894225 267.684637 
L 89.755248 266.363253 
L 91.61627 264.777838 
L 93.477293 262.930237 
L 95.338316 260.824636 
L 97.199338 258.467086 
L 99.990872 254.475194 
L 102.782406 249.963966 
L 105.57394 244.968143 
L 108.365474 239.525635 
L 111.157008 233.676522 
L 114.879053 225.317011 
L 118.601098 216.408638 
L 123.253655 204.654386 
L 128.836723 189.896137 
L 139.072347 161.991431 
L 147.446949 139.381237 
L 153.030017 124.873428 
L 157.682573 113.311949 
L 162.33513 102.344783 
L 166.057175 94.061287 
L 169.77922 86.258082 
L 173.501265 78.970378 
L 177.223311 72.228005 
L 180.945356 66.055593 
L 183.73689 61.812316 
L 186.528424 57.907297 
L 189.319958 54.34559 
L 192.111492 51.13085 
L 194.903025 48.265389 
L 197.694559 45.750237 
L 200.486093 43.585203 
L 203.277627 41.768934 
L 206.069161 40.298977 
L 208.860695 39.171843 
L 211.652229 38.383063 
L 214.443763 37.927255 
L 217.235297 37.798182 
L 220.026831 37.988811 
L 222.818365 38.491376 
L 225.609899 39.297434 
L 228.401433 40.397922 
L 231.192966 41.783217 
L 233.9845 43.443187 
L 236.776034 45.36725 
L 239.567568 47.544424 
L 242.359102 49.963376 
L 246.081147 53.54461 
L 249.803193 57.506736 
L 253.525238 61.820926 
L 257.247283 66.457943 
L 261.89984 72.663295 
L 266.552396 79.269384 
L 272.135464 87.645018 
L 277.718532 96.417733 
L 285.162622 108.568817 
L 295.398247 125.761781 
L 312.14745 153.897524 
L 320.522052 167.465799 
L 327.035631 177.617186 
L 333.54921 187.335422 
L 339.132278 195.273906 
L 344.715346 202.817778 
L 350.298414 209.942305 
L 354.95097 215.545607 
L 359.603527 220.837364 
L 364.256083 225.812925 
L 368.90864 230.470289 
L 373.561196 234.809943 
L 378.213753 238.834694 
L 382.866309 242.549493 
L 387.518866 245.961248 
L 392.171423 249.078631 
L 396.823979 251.911882 
L 401.476536 254.472605 
L 406.129092 256.773573 
L 410.781649 258.828522 
L 415.434205 260.651958 
L 420.086762 262.258958 
L 425.66983 263.923445 
L 431.252897 265.325605 
L 436.835965 266.492492 
L 442.419033 267.450751 
L 448.932612 268.339488 
L 456.376703 269.10061 
L 463.820793 269.641892 
L 473.125906 270.082852 
L 484.292042 270.3717 
L 500.110734 270.527193 
L 534.539652 270.561816 
L 541.983743 270.561818 
L 541.983743 270.561818 
" clip-path="url(#pd2edd35fde)" style="fill: none; stroke: #08306b; stroke-width: 1.5; stroke-linecap: square"/>
   </g>
   <g id="patch_3">
    <path d="M 54.442344 282.2 
L 54.442344 26.16 
" style="fill: none; stroke: #000000; stroke-width: 0.8; stroke-linejoin: miter; stroke-linecap: square"/>
   </g>
   <g id="patch_4">
    <path d="M 54.442344 282.2 
L 565.2 282.2 
" style="fill: none; stroke: #000000; stroke-width: 0.8; stroke-linejoin: miter; stroke-linecap: square"/>
   </g>
   <g id="text_15">
    <!-- Modified PERT(mini=0, mode=3, maxi=10) densities -->
    <g transform="translate(151.265547 20.16) scale(0.12 -0.12)">
     <defs>
      <path id="DejaVuSans-30" d="M 628 4666 
L 1569 4666 
L 2759 1491 
L 3956 4666 
L 4897 4666 
L 4897 0 
L 4281 0 
L 4281 4097 
L 3078 897 
L 2444 897 
L 1241 4097 
L 1241 0 
L 628 0 
L 628 4666 
z
" transform="scale(0.015625)"/>
      <path id="DejaVuSans-52" d="M 1959 3097 
Q 1497 3097 1228 2736 
Q 959 2375 959 1747 
Q 959 1119 1226 758 
Q 1494 397 1959 397 
Q 2419 397 2687 759 
Q 2956 1122 2956 1747 
Q 2956 2369 2687 2733 
Q 2419 3097 1959 3097 
z
M 1959 3584 
Q 2709 3584 3137 3096 
Q 3566 2609 3566 1747 
Q 3566 888 3137 398 
Q 2709 -91 1959 -91 
Q 1206 -91 779 398 
Q 353 888 353 1747 
Q 353 2609 779 3096 
Q 1206 3584 1959 3584 
z
" transform="scale(0.015625)"/>
      <path id="DejaVuSans-13af" d="M 3431 3500 
L 3431 0 
L 2853 0 
L 2853 3053 
L 1275 3053 
L 1275 0 
L 697 0 
L 697 3053 
L 147 3053 
L 147 3500 
L 697 3500 
L 697 3744 
Q 697 4316 967 4589 
Q 1238 4863 1797 4863 
L 2375 4863 
L 2375 4384 
L 1825 4384 
Q 1516 4384 1395 4259 
Q 1275 4134 1275 3809 
L 1275 3500 
L 3431 3500 
z
M 2853 4856 
L 3431 4856 
L 3431 4128 
L 2853 4128 
L 2853 4856 
z
" transform="scale(0.015625)"/>
      <path id="DejaVuSans-3" transform="scale(0.015625)"/>
      <path id="DejaVuSans-33" d="M 1259 4147 
L 1259 2394 
L 2053 2394 
Q 2494 2394 2734 2622 
Q 2975 2850 2975 3272 
Q 2975 3691 2734 3919 
Q 2494 4147 2053 4147 
L 1259 4147 
z
M 628 4666 
L 2053 4666 
Q 2838 4666 3239 4311 
Q 3641 3956 3641 3272 
Q 3641 2581 3239 2228 
Q 2838 1875 2053 1875 
L 1259 1875 
L 1259 0 
L 628 0 
L 628 4666 
z
" transform="scale(0.015625)"/>
      <path id="DejaVuSans-28" d="M 628 4666 
L 3578 4666 
L 3578 4134 
L 1259 4134 
L 1259 2753 
L 3481 2753 
L 3481 2222 
L 1259 2222 
L 1259 531 
L 3634 531 
L 3634 0 
L 628 0 
L 628 4666 
z
" transform="scale(0.015625)"/>
      <path id="DejaVuSans-35" d="M 2841 2188 
Q 3044 2119 3236 1894 
Q 3428 1669 3622 1275 
L 4263 0 
L 3584 0 
L 2988 1197 
Q 2756 1666 2539 1819 
Q 2322 1972 1947 1972 
L 1259 1972 
L 1259 0 
L 628 0 
L 628 4666 
L 2053 4666 
Q 2853 4666 3247 4331 
Q 3641 3997 3641 3322 
Q 3641 2881 3436 2590 
Q 3231 2300 2841 2188 
z
M 1259 4147 
L 1259 2491 
L 2053 2491 
Q 2509 2491 2742 2702 
Q 2975 2913 2975 3322 
Q 2975 3731 2742 3939 
Q 2509 4147 2053 4147 
L 1259 4147 
z
" transform="scale(0.015625)"/>
      <path id="DejaVuSans-37" d="M -19 4666 
L 3928 4666 
L 3928 4134 
L 2272 4134 
L 2272 0 
L 1638 0 
L 1638 4134 
L -19 4134 
L -19 4666 
z
" transform="scale(0.015625)"/>
      <path id="DejaVuSans-b" d="M 1984 4856 
Q 1566 4138 1362 3434 
Q 1159 2731 1159 2009 
Q 1159 1288 1364 580 
Q 1569 -128 1984 -844 
L 1484 -844 
Q 1016 -109 783 600 
Q 550 1309 550 2009 
Q 550 2706 781 3412 
Q 1013 4119 1484 4856 
L 1984 4856 
z
" transform="scale(0.015625)"/>
      <path id="DejaVuSans-50" d="M 3328 2828 
Q 3544 3216 3844 3400 
Q 4144 3584 4550 3584 
Q 5097 3584 5394 3201 
Q 5691 2819 5691 2113 
L 5691 0 
L 5113 0 
L 5113 2094 
Q 5113 2597 4934 2840 
Q 4756 3084 4391 3084 
Q 3944 3084 3684 2787 
Q 3425 2491 3425 1978 
L 3425 0 
L 2847 0 
L 2847 2094 
Q 2847 2600 2669 2842 
Q 2491 3084 2119 3084 
Q 1678 3084 1418 2786 
Q 1159 2488 1159 1978 
L 1159 0 
L 581 0 
L 581 3500 
L 1159 3500 
L 1159 2956 
Q 1356 3278 1631 3431 
Q 1906 3584 2284 3584 
Q 2666 3584 2933 3390 
Q 3200 3197 3328 2828 
z
" transform="scale(0.015625)"/>
      <path id="DejaVuSans-20" d="M 678 2906 
L 4684 2906 
L 4684 2381 
L 678 2381 
L 678 2906 
z
M 678 1631 
L 4684 1631 
L 4684 1100 
L 678 1100 
L 678 1631 
z
" transform="scale(0.015625)"/>
      <path id="DejaVuSans-f" d="M 750 794 
L 1409 794 
L 1409 256 
L 897 -744 
L 494 -744 
L 750 256 
L 750 794 
z
" transform="scale(0.015625)"/>
      <path id="DejaVuSans-16" d="M 2597 2516 
Q 3050 2419 3304 2112 
Q 3559 1806 3559 1356 
Q 3559 666 3084 287 
Q 2609 -91 1734 -91 
Q 1441 -91 1130 -33 
Q 819 25 488 141 
L 488 750 
Q 750 597 1062 519 
Q 1375 441 1716 441 
Q 2309 441 2620 675 
Q 2931 909 2931 1356 
Q 2931 1769 2642 2001 
Q 2353 2234 1838 2234 
L 1294 2234 
L 1294 2753 
L 1863 2753 
Q 2328 2753 2575 2939 
Q 2822 3125 2822 3475 
Q 2822 3834 2567 4026 
Q 2313 4219 1838 4219 
Q 1578 4219 1281 4162 
Q 984 4106 628 3988 
L 628 4550 
Q 988 4650 1302 4700 
Q 1616 4750 1894 4750 
Q 2613 4750 3031 4423 
Q 3450 4097 3450 3541 
Q 3450 3153 3228 2886 
Q 3006 2619 2597 2516 
z
" transform="scale(0.015625)"/>
      <path id="DejaVuSans-44" d="M 2194 1759 
Q 1497 1759 1228 1600 
Q 959 1441 959 1056 
Q 959 750 1161 570 
Q 1363 391 1709 391 
Q 2188 391 2477 730 
Q 2766 1069 2766 1631 
L 2766 1759 
L 2194 1759 
z
M 3341 1997 
L 3341 0 
L 2766 0 
L 2766 531 
Q 2569 213 2275 61 
Q 1981 -91 1556 -91 
Q 1019 -91 701 211 
Q 384 513 384 1019 
Q 384 1609 779 1909 
Q 1175 2209 1959 2209 
L 2766 2209 
L 2766 2266 
Q 2766 2663 2505 2880 
Q 2244 3097 1772 3097 
Q 1472 3097 1187 3025 
Q 903 2953 641 2809 
L 641 3341 
Q 956 3463 1253 3523 
Q 1550 3584 1831 3584 
Q 2591 3584 2966 3190 
Q 3341 2797 3341 1997 
z
" transform="scale(0.015625)"/>
      <path id="DejaVuSans-c" d="M 513 4856 
L 1013 4856 
Q 1481 4119 1714 3412 
Q 1947 2706 1947 2009 
Q 1947 1309 1714 600 
Q 1481 -109 1013 -844 
L 513 -844 
Q 928 -128 1133 580 
Q 1338 1288 1338 2009 
Q 1338 2731 1133 3434 
Q 928 4138 513 4856 
z
" transform="scale(0.015625)"/>
     </defs>
     <use xlink:href="#DejaVuSans-30"/>
     <use xlink:href="#DejaVuSans-52" transform="translate(86.28125 0)"/>
     <use xlink:href="#DejaVuSans-47" transform="translate(147.46875 0)"/>
     <use xlink:href="#DejaVuSans-4c" transform="translate(210.953125 0)"/>
     <use xlink:href="#DejaVuSans-13af" transform="translate(238.734375 0)"/>
     <use xlink:href="#DejaVuSans-48" transform="translate(301.71875 0)"/>
     <use xlink:href="#DejaVuSans-47" transform="translate(363.25 0)"/>
     <use xlink:href="#DejaVuSans-3" transform="translate(426.734375 0)"/>
     <use xlink:href="#DejaVuSans-33" transform="translate(458.515625 0)"/>
     <use xlink:href="#DejaVuSans-28" transform="translate(518.8125 0)"/>
     <use xlink:href="#DejaVuSans-35" transform="translate(582 0)"/>
     <use xlink:href="#DejaVuSans-37" transform="translate(644.203125 0)"/>
     <use xlink:href="#DejaVuSans-b" transform="translate(705.28125 0)"/>
     <use xlink:href="#DejaVuSans-50" transform="translate(744.296875 0)"/>
     <use xlink:href="#DejaVuSans-4c" transform="translate(841.703125 0)"/>
     <use xlink:href="#DejaVuSans-51" transform="translate(869.484375 0)"/>
     <use xlink:href="#DejaVuSans-4c" transform="translate(932.859375 0)"/>
     <use xlink:href="#DejaVuSans-20" transform="translate(960.640625 0)"/>
     <use xlink:href="#DejaVuSans-13" transform="translate(1044.4375 0)"/>
     <use xlink:href="#DejaVuSans-f" transform="translate(1108.0625 0)"/>
     <use xlink:href="#DejaVuSans-3" transform="translate(1139.84375 0)"/>
     <use xlink:href="#DejaVuSans-50" transform="translate(1171.625 0)"/>
     <use xlink:href="#DejaVuSans-52" transform="translate(1269.03125 0)"/>
     <use xlink:href="#DejaVuSans-47" transform="translate(1330.21875 0)"/>
     <use xlink:href="#DejaVuSans-48" transform="translate(1393.703125 0)"/>
     <use xlink:href="#DejaVuSans-20" transform="translate(1455.234375 0)"/>
     <use xlink:href="#DejaVuSans-16" transform="translate(1539.03125 0)"/>
     <use xlink:href="#DejaVuSans-f" transform="translate(1602.65625 0)"/>
     <use xlink:href="#DejaVuSans-3" transform="translate(1634.4375 0)"/>
     <use xlink:href="#DejaVuSans-50" transform="translate(1666.21875 0)"/>
     <use xlink:href="#DejaVuSans-44" transform="translate(1763.625 0)"/>
     <use xlink:href="#DejaVuSans-5b" transform="translate(1824.90625 0)"/>
     <use xlink:href="#DejaVuSans-4c" transform="translate(1884.09375 0)"/>
     <use xlink:href="#DejaVuSans-20" transform="translate(1911.875 0)"/>
     <use xlink:href="#DejaVuSans-14" transform="translate(1995.671875 0)"/>
     <use xlink:href="#DejaVuSans-13" transform="translate(2059.296875 0)"/>
     <use xlink:href="#DejaVuSans-c" transform="translate(2122.921875 0)"/>
     <use xlink:href="#DejaVuSans-3" transform="translate(2161.9375 0)"/>
     <use xlink:href="#DejaVuSans-47" transform="translate(2193.71875 0)"/>
     <use xlink:href="#DejaVuSans-48" transform="translate(2257.203125 0)"/>
     <use xlink:href="#DejaVuSans-51" transform="translate(2318.734375 0)"/>
     <use xlink:href="#DejaVuSans-56" transform="translate(2382.109375 0)"/>
     <use xlink:href="#DejaVuSans-4c" transform="translate(2434.203125 0)"/>
     <use xlink:href="#DejaVuSans-57" transform="translate(2461.984375 0)"/>
     <use xlink:href="#DejaVuSans-4c" transform="translate(2501.1875 0)"/>
     <use xlink:href="#DejaVuSans-48" transform="translate(2528.96875 0)"/>
     <use xlink:href="#DejaVuSans-56" transform="translate(2590.5 0)"/>
    </g>
   </g>
   <g id="legend_1">
    <g id="line2d_17">
     <path d="M 410.178125 39.258437 
L 420.178125 39.258437 
L 430.178125 39.258437 
" style="fill: none; stroke: #9ecae1; stroke-width: 1.5; stroke-linecap: square"/>
    </g>
    <g id="text_16">
     <!-- lambd=1 -->
     <g transform="translate(438.178125 42.758437) scale(0.1 -0.1)">
      <defs>
       <path id="DejaVuSans-4f" d="M 603 4863 
L 1178 4863 
L 1178 0 
L 603 0 
L 603 4863 
z
" transform="scale(0.015625)"/>
       <path id="DejaVuSans-45" d="M 3116 1747 
Q 3116 2381 2855 2742 
Q 2594 3103 2138 3103 
Q 1681 3103 1420 2742 
Q 1159 2381 1159 1747 
Q 1159 1113 1420 752 
Q 1681 391 2138 391 
Q 2594 391 2855 752 
Q 3116 1113 3116 1747 
z
M 1159 2969 
Q 1341 3281 1617 3432 
Q 1894 3584 2278 3584 
Q 2916 3584 3314 3078 
Q 3713 2572 3713 1747 
Q 3713 922 3314 415 
Q 2916 -91 2278 -91 
Q 1894 -91 1617 61 
Q 1341 213 1159 525 
L 1159 0 
L 581 0 
L 581 4863 
L 1159 4863 
L 1159 2969 
z
" transform="scale(0.015625)"/>
      </defs>
      <use xlink:href="#DejaVuSans-4f"/>
      <use xlink:href="#DejaVuSans-44" transform="translate(27.78125 0)"/>
      <use xlink:href="#DejaVuSans-50" transform="translate(89.0625 0)"/>
      <use xlink:href="#DejaVuSans-45" transform="translate(186.46875 0)"/>
      <use xlink:href="#DejaVuSans-47" transform="translate(249.953125 0)"/>
      <use xlink:href="#DejaVuSans-20" transform="translate(313.4375 0)"/>
      <use xlink:href="#DejaVuSans-14" transform="translate(397.234375 0)"/>
     </g>
    </g>
    <g id="line2d_18">
     <path d="M 410.178125 54.259219 
L 420.178125 54.259219 
L 430.178125 54.259219 
" style="fill: none; stroke: #6baed6; stroke-width: 1.5; stroke-linecap: square"/>
    </g>
    <g id="text_17">
     <!-- lambd=2 -->
     <g transform="translate(438.178125 57.759219) scale(0.1 -0.1)">
      <use xlink:href="#DejaVuSans-4f"/>
      <use xlink:href="#DejaVuSans-44" transform="translate(27.78125 0)"/>
      <use xlink:href="#DejaVuSans-50" transform="translate(89.0625 0)"/>
      <use xlink:href="#DejaVuSans-45" transform="translate(186.46875 0)"/>
      <use xlink:href="#DejaVuSans-47" transform="translate(249.953125 0)"/>
      <use xlink:href="#DejaVuSans-20" transform="translate(313.4375 0)"/>
      <use xlink:href="#DejaVuSans-15" transform="translate(397.234375 0)"/>
     </g>
    </g>
    <g id="line2d_19">
     <path d="M 410.178125 69.26 
L 420.178125 69.26 
L 430.178125 69.26 
" style="fill: none; stroke: #2171b5; stroke-width: 1.5; stroke-linecap: square"/>
    </g>
    <g id="text_18">
     <!-- lambd=4 (classic PERT) -->
     <g transform="translate(438.178125 72.76) scale(0.1 -0.1)">
      <defs>
       <path id="DejaVuSans-46" d="M 3122 3366 
L 3122 2828 
Q 2878 2963 2633 3030 
Q 2388 3097 2138 3097 
Q 1578 3097 1268 2742 
Q 959 2388 959 1747 
Q 959 1106 1268 751 
Q 1578 397 2138 397 
Q 2388 397 2633 464 
Q 2878 531 3122 666 
L 3122 134 
Q 2881 22 2623 -34 
Q 2366 -91 2075 -91 
Q 1284 -91 818 406 
Q 353 903 353 1747 
Q 353 2603 823 3093 
Q 1294 3584 2113 3584 
Q 2378 3584 2631 3529 
Q 2884 3475 3122 3366 
z
" transform="scale(0.015625)"/>
      </defs>
      <use xlink:href="#DejaVuSans-4f"/>
      <use xlink:href="#DejaVuSans-44" transform="translate(27.78125 0)"/>
      <use xlink:href="#DejaVuSans-50" transform="translate(89.0625 0)"/>
      <use xlink:href="#DejaVuSans-45" transform="translate(186.46875 0)"/>
      <use xlink:href="#DejaVuSans-47" transform="translate(249.953125 0)"/>
      <use xlink:href="#DejaVuSans-20" transform="translate(313.4375 0)"/>
      <use xlink:href="#DejaVuSans-17" transform="translate(397.234375 0)"/>
      <use xlink:href="#DejaVuSans-3" transform="translate(460.859375 0)"/>
      <use xlink:href="#DejaVuSans-b" transform="translate(492.640625 0)"/>
      <use xlink:href="#DejaVuSans-46" transform="translate(531.65625 0)"/>
      <use xlink:href="#DejaVuSans-4f" transform="translate(586.640625 0)"/>
      <use xlink:href="#DejaVuSans-44" transform="translate(614.421875 0)"/>
      <use xlink:href="#DejaVuSans-56" transform="translate(675.703125 0)"/>
      <use xlink:href="#DejaVuSans-56" transform="translate(727.796875 0)"/>
      <use xlink:href="#DejaVuSans-4c" transform="translate(779.890625 0)"/>
      <use xlink:href="#DejaVuSans-46" transform="translate(807.671875 0)"/>
      <use xlink:href="#DejaVuSans-3" transform="translate(862.65625 0)"/>
      <use xlink:href="#DejaVuSans-33" transform="translate(894.4375 0)"/>
      <use xlink:href="#DejaVuSans-28" transform="translate(954.734375 0)"/>
      <use xlink:href="#DejaVuSans-35" transform="translate(1017.921875 0)"/>
      <use xlink:href="#DejaVuSans-37" transform="translate(1080.125 0)"/>
      <use xlink:href="#DejaVuSans-c" transform="translate(1141.203125 0)"/>
     </g>
    </g>
    <g id="line2d_20">
     <path d="M 410.178125 84.260781 
L 420.178125 84.260781 
L 430.178125 84.260781 
" style="fill: none; stroke: #08306b; stroke-width: 1.5; stroke-linecap: square"/>
    </g>
    <g id="text_19">
     <!-- lambd=8 -->
     <g transform="translate(438.178125 87.760781) scale(0.1 -0.1)">
      <use xlink:href="#DejaVuSans-4f"/>
      <use xlink:href="#DejaVuSans-44" transform="translate(27.78125 0)"/>
      <use xlink:href="#DejaVuSans-50" transform="translate(89.0625 0)"/>
      <use xlink:href="#DejaVuSans-45" transform="translate(186.46875 0)"/>
      <use xlink:href="#DejaVuSans-47" transform="translate(249.953125 0)"/>
      <use xlink:href="#DejaVuSans-20" transform="translate(313.4375 0)"/>
      <use xlink:href="#DejaVuSans-1b" transform="translate(397.234375 0)"/>
     </g>
    </g>
   </g>
  </g>
 </g>
 <defs>
  <clipPath id="pd2edd35fde">
   <rect x="54.442344" y="26.16" width="510.757656" height="256.04"/>
  </clipPath>
 </defs>
</svg>
